<?xml version="1.0" standalone="no"?>
<!DOCTYPE svg PUBLIC "-//W3C//DTD SVG 1.1//EN" "http://www.w3.org/Graphics/SVG/1.1/DTD/svg11.dtd" >
<svg xmlns="http://www.w3.org/2000/svg">
<metadata></metadata>
<defs>
<font id="lorimerregular" horiz-adv-x="872" >
<font-face units-per-em="2048" ascent="1638" descent="-410" />
<missing-glyph horiz-adv-x="389" />
<glyph horiz-adv-x="2048" />
<glyph horiz-adv-x="2048" />
<glyph unicode="&#xd;" horiz-adv-x="2048" />
<glyph unicode=" "  horiz-adv-x="389" />
<glyph unicode="&#x09;" horiz-adv-x="389" />
<glyph unicode="&#xa0;" horiz-adv-x="389" />
<glyph unicode="!" horiz-adv-x="458" d="M129 0v193h201v-193h-201zM129 1434h203l-47 -1069h-109z" />
<glyph unicode="&#x22;" horiz-adv-x="720" d="M117 1434h188l-31 -660h-129zM416 1434h190l-31 -660h-129z" />
<glyph unicode="#" horiz-adv-x="1296" d="M27 424l28 131h267l75 352h-268l29 129h266l86 398h149l-86 -398h283l84 398h150l-86 -398h266l-27 -129h-266l-76 -352h266l-26 -131h-267l-90 -424h-147l90 424h-283l-90 -424h-149l90 424h-268zM471 555h283l75 352h-282z" />
<glyph unicode="$" horiz-adv-x="972" d="M84 451l172 30q4 -168 62.5 -243.5t181.5 -75.5q209 0 209 209q0 36 -7 66.5t-15.5 52.5t-29 43.5t-36 35t-48 32t-52.5 28t-63 29.5t-67 32q-53 26 -90 47.5t-80 56.5t-68.5 73t-43 93t-17.5 121q0 151 82 236.5t227 103.5v217h164v-219q302 -46 316 -413l-172 -31 q-3 165 -60.5 232t-171.5 67q-211 0 -211 -189q0 -32 7.5 -60t16.5 -48t30.5 -41t36.5 -33.5t48 -30.5t51 -26.5t59 -27t60 -27.5q77 -36 128 -68.5t95.5 -79.5t65.5 -110t21 -146q0 -157 -80 -257.5t-240 -117.5v-217h-164v221q-298 51 -317 435z" />
<glyph unicode="%" horiz-adv-x="1435" d="M61 1065q0 206 67 294.5t204 88.5q136 0 202 -88.5t66 -294.5q0 -207 -66 -296t-202 -89q-137 0 -204 89.5t-67 295.5zM203 1065q0 -156 28.5 -210t100.5 -54q48 0 74.5 21t39.5 78.5t13 164.5t-13 164.5t-39.5 78.5t-74.5 21q-72 0 -100.5 -54t-28.5 -210zM213 0 l864 1434h133l-864 -1434h-133zM834 371q0 206 66.5 294.5t203.5 88.5t203.5 -88.5t66.5 -294.5t-67 -295.5t-203 -89.5t-203 89.5t-67 295.5zM977 371q0 -107 13 -164.5t39.5 -79t74.5 -21.5t74.5 21.5t39.5 79t13 164.5q0 106 -13 163.5t-39.5 79t-74.5 21.5t-74.5 -21.5 t-39.5 -79t-13 -163.5z" />
<glyph unicode="&#x26;" horiz-adv-x="1091" d="M53 393q0 165 85 275t249 184q-59 104 -87 177t-28 153q0 136 77 205t212 69q129 0 198.5 -75t69.5 -216q0 -125 -54.5 -208t-184.5 -150l192 -328q76 165 195 248l96 -135q-20 -14 -37.5 -29t-34.5 -34.5t-28.5 -33t-28 -39t-24.5 -38t-26.5 -44t-25.5 -42.5l195 -332 h-199l-96 170q-62 -94 -137.5 -145.5t-190.5 -51.5q-181 0 -284 115.5t-103 304.5zM233 416q0 -139 59.5 -214t158.5 -75q87 0 143 49.5t94 134.5l-242 434q-119 -65 -166 -142.5t-47 -186.5zM438 1176q0 -51 18.5 -110t71.5 -155q94 45 130 99t36 143q0 162 -129 162 q-62 0 -94.5 -32t-32.5 -107z" />
<glyph unicode="'" horiz-adv-x="425" d="M117 1434h192l-30 -660h-134z" />
<glyph unicode="(" horiz-adv-x="544" d="M94 575q0 276 79.5 505t201.5 380h145q-123 -198 -192.5 -409.5t-69.5 -470.5q0 -214 57.5 -425.5t188.5 -441.5l-131 -30q-279 412 -279 892z" />
<glyph unicode=")" horiz-adv-x="544" d="M16 1460h146q122 -150 201 -379.5t79 -505.5q0 -481 -278 -892l-131 30q131 230 188.5 441.5t57.5 425.5q0 259 -70 470.5t-193 409.5z" />
<glyph unicode="*" horiz-adv-x="802" d="M45 1176l49 90l236 -58l32 260l101 -20l20 -244l256 51l15 -102l-224 -92l127 -227l-94 -43l-157 184l-181 -191l-69 76l127 205z" />
<glyph unicode="+" horiz-adv-x="962" d="M117 637v162h284v303h162v-303h283v-162h-283v-305h-162v305h-284z" />
<glyph unicode="," horiz-adv-x="425" d="M113 0v195h200v-164l-123 -289l-73 25l78 233h-82z" />
<glyph unicode="-" horiz-adv-x="641" d="M113 575v158h415v-158h-415z" />
<glyph unicode="." horiz-adv-x="425" d="M113 0v195h200v-195h-200z" />
<glyph unicode="/" horiz-adv-x="772" d="M2 -150l610 1635h146l-613 -1635h-143z" />
<glyph unicode="0" horiz-adv-x="1085" d="M109 717q0 381 67 530q43 98 133.5 155.5t233.5 57.5q275 0 368 -213q66 -147 66 -530q0 -384 -66 -531q-93 -213 -368 -213q-143 0 -233.5 57.5t-133.5 155.5q-67 149 -67 531zM293 717q0 -331 35 -441q25 -79 77.5 -111t137.5 -32q87 0 139.5 31.5t77.5 111.5 q35 110 35 441q0 330 -35 440q-25 80 -77.5 111.5t-139.5 31.5q-85 0 -137.5 -32t-77.5 -111q-35 -110 -35 -440z" />
<glyph unicode="1" horiz-adv-x="561" d="M41 1370l207 72h143v-1442h-176v1262l-133 -29z" />
<glyph unicode="2" horiz-adv-x="952" d="M47 0v121q127 123 206.5 202.5t159 166.5t123.5 149t80 131t50 131.5t14 132.5q0 126 -51 196t-170 70q-50 0 -88 -14t-69.5 -47.5t-49 -95t-21.5 -150.5l-176 31q48 436 416 436q86 0 153.5 -23.5t111 -62.5t72 -94t40.5 -114t12 -126q0 -113 -35 -219t-110.5 -214.5 t-169 -210t-234.5 -232.5h566v-164h-830z" />
<glyph unicode="3" horiz-adv-x="980" d="M66 420l176 31q5 -66 12 -108t22.5 -86t40 -68.5t65 -40t97.5 -15.5q69 0 115 23.5t70 70t33.5 103.5t9.5 137q0 69 -4 112.5t-18.5 79.5t-35.5 54.5t-62.5 32t-91.5 17.5t-130 5l-25 119l330 389h-588v158h809v-131l-328 -398q62 -6 111 -21t83 -36.5t58 -53.5t38.5 -65 t22.5 -78t10.5 -85.5t2.5 -94.5q0 -113 -20.5 -200.5t-66.5 -156t-127.5 -105t-195.5 -36.5q-199 0 -295.5 112t-117.5 335z" />
<glyph unicode="4" horiz-adv-x="989" d="M41 596l559 838h203v-834h153v-154h-153v-446h-170v446h-559zM223 600h410v623z" />
<glyph unicode="5" horiz-adv-x="985" d="M90 420l176 31q5 -66 12 -108.5t23 -86t40.5 -68t65 -40t97.5 -15.5q69 0 114.5 23t69.5 70t33.5 104t9.5 137q0 63 -3 103.5t-16 85t-37 69t-67.5 41t-105.5 16.5q-158 0 -232 -100l-170 33l72 719h725l-29 -156h-557l-39 -432q40 39 110.5 62.5t160.5 23.5 q182 0 276 -107.5t94 -353.5q0 -113 -20.5 -200.5t-66 -156t-127 -105t-195.5 -36.5q-199 0 -296 112t-118 335z" />
<glyph unicode="6" horiz-adv-x="1060" d="M109 717q0 381 67 530q93 213 373 213q176 0 273.5 -92t127.5 -278l-178 -31q-5 34 -9.5 57t-13 50.5t-19.5 46t-28 37t-38.5 29.5t-52 17.5t-68.5 6.5q-87 0 -138.5 -32.5t-76.5 -111.5q-32 -94 -37 -336q136 68 291 68q102 0 178.5 -32.5t122 -92t68 -137.5t22.5 -174 q0 -106 -25 -192t-76 -152t-135.5 -102t-197.5 -36q-266 0 -363 213q-67 149 -67 531zM291 674q2 -289 37 -398q27 -81 76.5 -113t134.5 -32q95 0 144.5 31t76.5 92q35 75 35 197q0 145 -57.5 216.5t-188.5 71.5q-132 0 -258 -65z" />
<glyph unicode="7" d="M29 1274v160h821v-138q-186 -246 -287.5 -577t-107.5 -719h-187q6 373 111.5 709.5t292.5 564.5h-643z" />
<glyph unicode="8" horiz-adv-x="1005" d="M84 356q0 123 59 219t203 175q-52 35 -89.5 68t-72 77t-52 98.5t-17.5 118.5q0 154 103.5 251t297.5 97q99 0 174.5 -27t120.5 -75t67.5 -108.5t22.5 -131.5q0 -123 -62 -210.5t-173 -155.5q59 -34 102.5 -69t83.5 -83t61 -110.5t21 -137.5q0 -171 -109.5 -275 t-318.5 -104q-210 0 -316 103t-106 280zM254 362q0 -112 64 -171.5t194 -59.5q124 0 182 53.5t58 149.5q0 49 -16.5 92.5t-39.5 74.5t-65 65t-74 55t-86 53q-111 -63 -164 -137t-53 -175zM291 1118q0 -42 14 -79t34 -64t56 -56t65.5 -48t76.5 -46q109 68 152.5 129t43.5 148 q0 209 -217 209q-116 0 -170.5 -54t-54.5 -139z" />
<glyph unicode="9" horiz-adv-x="1060" d="M88 979q0 106 25 192t76 151.5t135.5 101.5t197.5 36q266 0 363 -213q67 -149 67 -530q0 -382 -67 -531q-93 -213 -373 -213q-176 0 -273.5 92.5t-127.5 278.5l178 31q5 -34 9.5 -57t13 -50.5t19.5 -46t28 -37t38.5 -29.5t52 -17.5t68.5 -6.5q87 0 138.5 32t76.5 111 q30 96 35 334q-134 -65 -289 -65q-102 0 -178.5 32.5t-122 92t-68 137.5t-22.5 174zM266 983q0 -146 57.5 -217.5t188.5 -71.5q133 0 258 64q-2 286 -37 399q-25 81 -75.5 113.5t-135.5 32.5q-95 0 -144.5 -31t-76.5 -92q-35 -75 -35 -197z" />
<glyph unicode=":" horiz-adv-x="430" d="M115 0v190h202v-190h-202zM115 602v191h202v-191h-202z" />
<glyph unicode=";" horiz-adv-x="430" d="M115 0v190h202v-159l-122 -289l-74 25l76 233h-82zM115 602v191h202v-191h-202z" />
<glyph unicode="&#x3c;" horiz-adv-x="1071" d="M123 618v197l835 348v-180l-667 -266l667 -266v-181z" />
<glyph unicode="=" horiz-adv-x="962" d="M117 471v160h729v-160h-729zM117 803v160h729v-160h-729z" />
<glyph unicode="&#x3e;" horiz-adv-x="1071" d="M113 270v181l667 266l-667 266v180l835 -348v-197z" />
<glyph unicode="?" horiz-adv-x="899" d="M51 1110q26 164 131.5 257t270.5 93q169 0 265.5 -96.5t96.5 -257.5q0 -51 -11.5 -101t-26 -85.5t-42.5 -79.5t-46 -67.5t-52 -65.5q-72 -89 -106 -156.5t-44 -165.5h-153q7 121 47.5 208.5t122.5 190.5q49 62 70.5 93t41 86.5t19.5 119.5q0 222 -191 222 q-93 0 -147 -53.5t-74 -172.5zM313 0v203h193v-203h-193z" />
<glyph unicode="@" horiz-adv-x="1859" d="M111 467q0 186 45 338t124.5 258.5t191.5 179.5t244 107t283 34q157 0 283 -38.5t211 -106t141.5 -164t81.5 -207.5t25 -241q0 -264 -107 -408.5t-315 -144.5q-116 0 -185 44t-92 122q-77 -146 -251 -146q-211 0 -211 209q0 103 36 248q52 210 127.5 295.5t206.5 85.5 t170 -86l35 74h113l-101 -474q-16 -79 -16 -118q0 -81 42.5 -123.5t137.5 -42.5q311 0 311 448q0 121 -23 222.5t-72.5 187t-124.5 145t-184 92.5t-245 33q-170 0 -310.5 -51t-246 -150t-164.5 -258t-59 -364q0 -682 680 -682q143 0 272.5 28.5t218.5 82.5l50 -86 q-99 -59 -241.5 -89t-297.5 -30q-140 0 -256 25t-215.5 82t-167.5 145.5t-106.5 221t-38.5 302.5zM727 334q0 -65 26 -92t78 -27q29 0 53.5 8t42 19.5t33 34.5t26 43t21.5 56.5t17.5 63.5t17.5 74q29 135 29 182q0 59 -25 87t-85 28q-83 0 -125.5 -62.5t-81.5 -232.5 q-27 -118 -27 -182z" />
<glyph unicode="A" horiz-adv-x="1038" d="M27 0l399 1434h186l400 -1434h-187l-71 276h-469l-72 -276h-186zM322 418h395l-197 764h-2z" />
<glyph unicode="B" horiz-adv-x="1118" d="M156 0v1434h340q144 0 242 -23.5t151.5 -69.5t75.5 -104t22 -137q0 -113 -42.5 -186.5t-133.5 -116.5q67 -13 113 -48.5t69.5 -89t33 -110.5t9.5 -129q0 -75 -9.5 -132t-37.5 -114t-75.5 -93t-128.5 -58.5t-191 -22.5h-438zM328 158h243q83 0 134 11t87 41.5t50 83.5 t14 138q0 142 -49 198t-182 56q-131 0 -297 -45v-483zM328 795q97 13 161 24.5t122.5 28t93 35.5t60.5 47.5t36 64t10 84.5q0 111 -66.5 155t-238.5 44h-178v-483z" />
<glyph unicode="C" horiz-adv-x="1089" d="M111 717q0 381 71 534q97 209 383 209q204 0 305.5 -108t130.5 -316l-174 -30q-6 51 -13 85t-19.5 70.5t-30.5 59.5t-45.5 42.5t-66 28t-89.5 8.5q-93 0 -149.5 -33t-83.5 -112q-37 -101 -37 -438t37 -438q27 -79 82.5 -112.5t148.5 -33.5q76 0 126 19.5t78.5 63.5 t41.5 97.5t20 139.5l177 -31q-23 -219 -125.5 -334t-311.5 -115q-288 0 -385 209q-71 153 -71 535z" />
<glyph unicode="D" horiz-adv-x="1138" d="M156 0v1434h348q197 0 309 -49t162 -177q33 -83 44 -199t11 -292t-11 -292.5t-44 -199.5q-50 -127 -162 -176t-309 -49h-348zM330 158h190q129 0 200 35.5t97 113.5q31 97 31 410q0 312 -31 409q-26 78 -97 114t-200 36h-190v-1118z" />
<glyph unicode="E" horiz-adv-x="1021" d="M156 0v1434h774v-158h-602v-414h434v-153h-434v-547h602v-162h-774z" />
<glyph unicode="F" horiz-adv-x="983" d="M156 0v1434h766v-160h-590v-416h479v-156h-479v-702h-176z" />
<glyph unicode="G" horiz-adv-x="1122" d="M111 717q0 384 71 534q101 209 391 209q104 0 181 -28.5t125.5 -84t76.5 -128t43 -170.5l-176 -31q-8 75 -19.5 120t-38 85.5t-75 58.5t-123.5 18q-93 0 -151 -32.5t-86 -112.5q-37 -101 -37 -438t37 -438q27 -80 82.5 -113t150.5 -33q142 0 201 82q34 47 48.5 135 t16.5 248h-239v156h411v-752h-106l-23 137q-33 -72 -113 -119t-210 -47q-140 0 -231.5 56.5t-135.5 152.5q-42 91 -56.5 223t-14.5 312z" />
<glyph unicode="H" horiz-adv-x="1181" d="M156 0v1434h176v-568h516v568h178v-1434h-178v707h-516v-707h-176z" />
<glyph unicode="I" horiz-adv-x="487" d="M156 0v1434h176v-1434h-176z" />
<glyph unicode="J" horiz-adv-x="1007" d="M66 422l172 31q2 -45 4.5 -74.5t8.5 -66.5t15.5 -60t26 -47.5t39 -38.5t55 -22.5t74.5 -8.5q59 0 99 16t64 43t36.5 79t16 106.5t3.5 142.5v912h176v-971q0 -115 -19 -200.5t-62.5 -153t-122 -102t-191.5 -34.5q-106 0 -182.5 32t-121 93.5t-66 140.5t-25.5 183z" />
<glyph unicode="K" horiz-adv-x="1093" d="M156 0v1434h176v-611q91 57 163 135.5t150 204.5l168 271h207l-244 -383q-89 -137 -149 -185v-2q194 -7 274 -88.5t80 -253.5q2 -371 14 -522h-180q-10 123 -10 469q0 136 -51.5 187t-180.5 51q-114 0 -241 -31v-676h-176z" />
<glyph unicode="L" horiz-adv-x="940" d="M156 0v1434h176v-1268h581v-166h-757z" />
<glyph unicode="M" horiz-adv-x="1472" d="M160 0v1434h270l305 -1096l307 1096h271v-1434h-174v1194h-2l-336 -1198h-129l-336 1198h-2v-1194h-174z" />
<glyph unicode="N" horiz-adv-x="1187" d="M156 0v1434h186l516 -1102h2v1102h172v-1434h-186l-514 1100h-2v-1100h-174z" />
<glyph unicode="O" horiz-adv-x="1126" d="M111 717q0 381 71 534q47 100 143 154.5t238 54.5q141 0 239 -54t144 -155q70 -154 70 -534q0 -381 -70 -535q-46 -101 -144 -155t-239 -54q-142 0 -238 54.5t-143 154.5q-71 153 -71 535zM293 717q0 -337 37 -438q27 -80 82.5 -113t150.5 -33q94 0 152 32.5t84 113.5 q37 117 37 438t-37 438q-26 81 -84 113t-152 32q-95 0 -150.5 -32.5t-82.5 -112.5q-37 -101 -37 -438z" />
<glyph unicode="P" horiz-adv-x="1069" d="M156 0v1434h381q119 0 206.5 -19.5t138 -50.5t81 -77.5t40 -92.5t9.5 -104q0 -163 -76 -254.5t-244 -143.5q-124 -39 -360 -82v-610h-176zM332 768q197 35 293 66q121 39 162.5 94.5t41.5 148.5q0 53 -13.5 90t-35.5 58t-61 32.5t-78 15t-98 3.5h-211v-508z" />
<glyph unicode="Q" horiz-adv-x="1128" d="M111 717q0 381 71 534q47 100 143 154.5t238 54.5q141 0 239 -54t144 -155q70 -154 70 -534q0 -381 -70 -535q-14 -32 -28 -49q64 -21 190 -24l-31 -168q-190 3 -280 84q-96 -52 -234 -52q-142 0 -238 54.5t-143 154.5q-71 153 -71 535zM293 717q0 -337 37 -438 q27 -80 82.5 -113t150.5 -33q94 0 152 32.5t84 113.5q37 117 37 438t-37 438q-26 81 -84 113t-152 32q-95 0 -150.5 -32.5t-82.5 -112.5q-37 -101 -37 -438z" />
<glyph unicode="R" horiz-adv-x="1142" d="M156 0v1434h440q104 0 181.5 -16.5t125 -45t76 -71.5t39 -90t10.5 -107q0 -117 -44.5 -193.5t-149.5 -115.5v-2q188 -40 188 -299q2 -340 14 -494h-182q-10 104 -10 446q0 129 -49 177.5t-170 48.5t-295 -49v-623h-174zM330 782q130 17 219.5 36.5t148.5 43t91 56 t44.5 69t12.5 88.5q0 65 -17.5 106t-56.5 61.5t-85 27t-120 6.5h-237v-494z" />
<glyph unicode="S" horiz-adv-x="1015" d="M94 416l176 30q4 -166 66.5 -240.5t193.5 -74.5q117 0 171.5 55.5t54.5 165.5q0 51 -13 88.5t-28 63t-66.5 59.5t-86.5 53t-130 68l-12 6q-61 31 -98 52.5t-84 58.5t-73 75t-44.5 95t-18.5 125q1 93 32.5 163.5t87.5 113.5t129.5 64t162.5 21q196 0 302.5 -103.5 t115.5 -310.5l-176 -32q-4 160 -64.5 226.5t-181.5 66.5q-231 0 -231 -203q0 -24 4 -45t9 -38t20 -35.5t25 -30.5t36.5 -30t42 -28.5t55 -31.5t61.5 -32.5t74 -37.5q68 -34 112.5 -60.5t89.5 -64t70.5 -78t41.5 -97t16 -126.5q0 -182 -100.5 -288t-307.5 -106 q-412 0 -434 443z" />
<glyph unicode="T" horiz-adv-x="911" d="M31 1274v160h850v-160h-338v-1274h-176v1274h-336z" />
<glyph unicode="U" horiz-adv-x="1148" d="M147 463v971h177v-906q0 -190 16 -247q23 -80 82.5 -113t150.5 -33q193 0 236 146q16 57 16 247v906h176v-971q0 -116 -20 -201.5t-67.5 -152.5t-132.5 -101.5t-208 -34.5q-122 0 -207 34.5t-132 101.5t-67 152.5t-20 201.5z" />
<glyph unicode="V" horiz-adv-x="1028" d="M29 1434h190l295 -1168l295 1168h190l-395 -1434h-180z" />
<glyph unicode="W" horiz-adv-x="1593" d="M49 1434h184l224 -1082l272 1082h135l271 -1082l225 1082h184l-319 -1434h-158l-270 1079l-271 -1079h-157z" />
<glyph unicode="X" horiz-adv-x="978" d="M27 0l356 727l-346 707h190l262 -560l263 560h190l-346 -707l356 -727h-198l-265 567l-264 -567h-198z" />
<glyph unicode="Y" horiz-adv-x="958" d="M18 1434h197l264 -586l264 586h197l-373 -758v-676h-176v676z" />
<glyph unicode="Z" horiz-adv-x="1028" d="M70 0v137l669 1135h-661v162h872v-138l-667 -1132h673v-164h-886z" />
<glyph unicode="[" horiz-adv-x="577" d="M137 -352v1812h416v-127h-264v-1558h264v-127h-416z" />
<glyph unicode="\" horiz-adv-x="770" d="M14 1485h146l608 -1635h-143z" />
<glyph unicode="]" horiz-adv-x="577" d="M25 -225h264v1558h-264v127h415v-1812h-415v127z" />
<glyph unicode="^" horiz-adv-x="823" d="M45 946l283 488h168l282 -488h-172l-194 301l-193 -301h-174z" />
<glyph unicode="_" horiz-adv-x="1030" d="M0 -27h1030v-141h-1030v141z" />
<glyph unicode="`" horiz-adv-x="1024" d="M297 1323h192l95 -279h-138z" />
<glyph unicode="a" horiz-adv-x="849" d="M51 244q0 165 129.5 238t386.5 73v53q0 109 -29.5 153t-121.5 44q-78 0 -122 -34.5t-50 -125.5l-154 31q16 96 63 156.5t112 84t153 23.5q155 0 231 -77t76 -253v-424q0 -41 22 -56t72 -15v-111q-23 -10 -65 -10q-135 0 -166 92q-59 -100 -244 -100q-130 0 -211.5 61 t-81.5 197zM219 256q0 -74 39.5 -106.5t118.5 -32.5q190 0 190 151v168q-134 0 -211.5 -21t-107 -58.5t-29.5 -100.5z" />
<glyph unicode="b" d="M113 0v1434h161v-611q25 54 81.5 87.5t140.5 33.5q145 0 221 -106q76 -105 76 -369q0 -288 -88 -397q-72 -86 -213 -86q-170 0 -224 116l-18 -102h-137zM270 463q0 -179 39 -256q44 -84 150 -84q57 0 92 25t53 85q21 67 21 228q0 159 -21 231q-30 115 -147 115 q-102 0 -148 -88q-39 -77 -39 -256z" />
<glyph unicode="c" horiz-adv-x="813" d="M80 465q0 252 76 360q87 123 268 123q283 0 328 -297l-156 -26q-13 91 -50 137.5t-122 46.5q-63 0 -100 -25.5t-54 -83.5q-22 -75 -22 -235q0 -159 22 -234q17 -58 54.5 -84t99.5 -26q90 0 126 48t46 150l156 -24q-8 -67 -29 -121t-59 -98.5t-99 -69t-141 -24.5 q-181 0 -268 124q-76 108 -76 359z" />
<glyph unicode="d" d="M80 469q0 264 76 369q76 106 221 106q84 0 139 -33.5t82 -87.5v611h162v-1434h-137l-19 102q-58 -116 -223 -116q-141 0 -213 86q-88 109 -88 397zM248 461q0 -165 20 -228q18 -60 53.5 -85t92.5 -25q105 0 149 84q39 77 39 256t-39 256q-46 88 -147 88q-118 0 -148 -115 q-20 -69 -20 -231z" />
<glyph unicode="e" horiz-adv-x="837" d="M80 465q0 252 76 360q86 123 268 123q181 0 268 -123q43 -60 59.5 -153.5t16.5 -239.5h-524q4 -132 24 -201q33 -110 156 -110q88 0 125.5 47t48.5 147l156 -26q-19 -138 -98 -222.5t-232 -84.5q-182 0 -268 124q-76 108 -76 359zM246 559h352q-3 39 -4.5 57.5t-7 51.5 t-12 49.5t-19.5 38.5t-30 32.5t-42.5 18.5t-58.5 8q-63 0 -100 -26t-54 -84q-17 -59 -24 -146z" />
<glyph unicode="f" horiz-adv-x="491" d="M29 791v139h114v244q0 133 59.5 205.5t200.5 72.5q42 0 70 -4v-139q-18 2 -49 2q-68 0 -93.5 -33t-25.5 -119v-229h164v-139h-164v-791h-162v791h-114z" />
<glyph unicode="g" horiz-adv-x="839" d="M14 -117q0 135 144 176q-84 44 -84 140q0 105 104 147q-104 95 -104 264q0 148 76 238q83 98 237 98t238 -96q30 52 77.5 74t122.5 22v-174q-21 6 -55 6q-50 0 -92 -20q22 -71 22 -148q0 -155 -77 -243q-82 -91 -234 -91q-75 0 -131 21q-45 -12 -45 -61q0 -44 41.5 -57 t194.5 -21q53 -3 88 -7t80 -13t74 -25t55.5 -40.5t39.5 -62.5t13 -88q0 -270 -393 -270q-113 0 -198.5 22.5t-139.5 75.5t-54 133zM174 -92q0 -60 56.5 -92.5t193.5 -32.5q125 0 172 29t47 94q0 63 -42.5 81.5t-172.5 26.5q-68 3 -149 13q-51 -9 -78 -42t-27 -77zM229 610 q0 -105 38 -157t120 -52t120 52t38 157q0 103 -38 155t-120 52t-120 -52t-38 -155z" />
<glyph unicode="h" d="M113 0v1434h161v-598q59 108 224 108q136 0 201 -84.5t65 -267.5v-592h-162v557q0 147 -33.5 198.5t-115.5 51.5q-40 0 -69.5 -10.5t-55.5 -37.5t-40 -81t-14 -133v-545h-161z" />
<glyph unicode="i" horiz-adv-x="389" d="M100 1106v180h189v-180h-189zM113 0v930h161v-930h-161z" />
<glyph unicode="j" horiz-adv-x="391" d="M-33 -147q87 0 117.5 25.5t30.5 101.5v950h161v-922q0 -92 -16.5 -149t-56.5 -90q-67 -54 -236 -58v142zM102 1106v180h189v-180h-189z" />
<glyph unicode="k" horiz-adv-x="849" d="M113 0v1434h161v-850q84 37 140 88.5t116 148.5l68 109h186l-118 -193q-50 -81 -111 -131v-2q60 -7 100 -25.5t59.5 -49t27 -62.5t8.5 -76q9 -311 14 -391h-166q-1 15 -10 346q-2 70 -32 97.5t-114 27.5q-78 0 -168 -25v-446h-161z" />
<glyph unicode="l" horiz-adv-x="387" d="M113 0v1434h161v-1434h-161z" />
<glyph unicode="m" horiz-adv-x="1337" d="M113 0v930h145l14 -88q61 102 215 102q170 0 230 -141q69 141 246 141q132 0 199 -84.5t67 -267.5v-592h-164v557q0 100 -16 155t-45.5 75t-81.5 20q-39 0 -67.5 -10.5t-53.5 -37.5t-38 -81t-13 -133v-545h-162v557q0 147 -32.5 198.5t-111.5 51.5q-39 0 -67 -10.5 t-52.5 -38t-37.5 -81t-13 -132.5v-545h-161z" />
<glyph unicode="n" d="M113 0v930h145l16 -94q59 108 224 108q136 0 201 -84.5t65 -267.5v-592h-162v557q0 147 -33.5 198.5t-115.5 51.5q-40 0 -69.5 -10.5t-55.5 -37.5t-40 -81t-14 -133v-545h-161z" />
<glyph unicode="o" horiz-adv-x="847" d="M80 465q0 252 76 360q86 123 268 123t268 -123q76 -108 76 -360q0 -250 -76 -361q-85 -122 -268 -122t-268 122q-76 111 -76 361zM248 465q0 -159 22 -234q17 -59 54 -84.5t100 -25.5t100 25.5t54 84.5q22 75 22 234q0 160 -22 235q-17 58 -54 83.5t-100 25.5t-100 -25.5 t-54 -83.5q-22 -75 -22 -235z" />
<glyph unicode="p" d="M113 -334v1264h161v-107q27 52 82 86.5t140 34.5q145 0 221 -106q76 -105 76 -367q0 -294 -88 -399q-72 -86 -216 -86q-158 0 -215 106v-426h-161zM270 465q0 -184 39 -258q44 -84 148 -84q57 0 94 25t53 85q19 68 19 230q0 164 -19 229q-30 115 -147 115 q-105 0 -148 -88q-39 -77 -39 -254z" />
<glyph unicode="q" d="M80 469q0 264 76 369q76 106 221 106q152 0 217 -113l16 99h150v-1264h-162v426q-61 -106 -217 -106q-141 0 -213 86q-88 109 -88 397zM248 461q0 -165 20 -228q18 -60 53.5 -85t92.5 -25q105 0 149 84q39 77 39 256t-39 256q-46 88 -147 88q-118 0 -148 -115 q-20 -69 -20 -231z" />
<glyph unicode="r" horiz-adv-x="731" d="M113 0v930h147l16 -92q46 106 185 106q120 0 173 -80t58 -246l-166 -28q-2 129 -24 174t-86 45q-32 0 -55.5 -11t-44.5 -40t-31.5 -88t-10.5 -146v-524h-161z" />
<glyph unicode="s" horiz-adv-x="755" d="M55 281l156 26q4 -104 45.5 -147t130.5 -43q77 0 114.5 28t37.5 91q0 16 -3 29.5t-6.5 24.5t-12.5 21.5t-16 18t-22.5 16.5t-25 14t-31 14t-34 14t-40 15.5t-43.5 16.5q-51 20 -85.5 38.5t-74.5 51t-61 80.5t-21 110q0 124 83.5 186t224.5 62q303 0 325 -286l-155 -27 q-7 92 -43 137t-131 45q-144 0 -144 -112q0 -20 5 -37t11.5 -29.5t22 -25.5t26 -20t35.5 -18t38 -16t46 -17t48 -18q46 -17 76.5 -31t65 -38t54.5 -51t33.5 -68.5t13.5 -93.5q0 -260 -307 -260q-320 0 -336 299z" />
<glyph unicode="t" horiz-adv-x="581" d="M45 791v139h115v235l162 33v-268h215v-139h-215v-512q0 -84 26 -117t94 -33q45 0 90 10v-141q-56 -12 -114 -12q-136 0 -198 67t-62 215q0 12 0.5 101.5t1 211t0.5 210.5h-115z" />
<glyph unicode="u" horiz-adv-x="870" d="M109 338v592h163v-557q0 -146 33 -198t111 -52q41 0 70.5 11.5t55.5 39.5t39 83t13 136v537h164v-930h-142l-18 104q-54 -118 -223 -118q-136 0 -201 84.5t-65 267.5z" />
<glyph unicode="v" horiz-adv-x="745" d="M27 930h172l174 -680l174 680h172l-264 -930h-164z" />
<glyph unicode="w" horiz-adv-x="1148" d="M41 930h168l139 -654l162 654h129l160 -654l141 654h168l-225 -930h-154l-156 625l-155 -625h-152z" />
<glyph unicode="x" horiz-adv-x="724" d="M16 0l252 492l-235 438h176l153 -316l154 316h176l-235 -438l252 -492h-181l-166 350l-165 -350h-181z" />
<glyph unicode="y" horiz-adv-x="745" d="M27 930h172l174 -682l176 682h170l-260 -918q-17 -58 -28 -94t-26 -75t-28.5 -61t-33.5 -45t-41 -34t-51 -21t-65.5 -13t-81.5 -3l-26 146q20 -2 55 -2q75 0 108 39.5t33 125.5q0 104 -38 238z" />
<glyph unicode="z" horiz-adv-x="755" d="M68 0v123l417 665h-409v142h606v-119l-420 -666h426v-145h-620z" />
<glyph unicode="{" horiz-adv-x="634" d="M23 498v141q52 0 83 7t47 25.5t20.5 42t4.5 66.5v475q0 109 45 157t164 48h223v-127h-182q-61 0 -79.5 -17t-18.5 -73v-504q0 -83 -17.5 -120.5t-74.5 -51.5q56 -14 74 -52t18 -118v-532q0 -55 19 -72.5t79 -17.5h182v-125h-225q-118 0 -162.5 47.5t-44.5 157.5v501 q0 43 -4.5 67t-20.5 42.5t-47 25.5t-83 7z" />
<glyph unicode="|" horiz-adv-x="768" d="M301 -334v1870h164v-1870h-164z" />
<glyph unicode="}" horiz-adv-x="634" d="M25 -225h182q60 0 79 17.5t19 72.5v532q0 80 18 118t74 52q-57 14 -74.5 51.5t-17.5 120.5v504q0 56 -18.5 73t-79.5 17h-182v127h223q119 0 164 -48t45 -157v-475q0 -43 4.5 -66.5t20.5 -42t47 -25.5t83 -7v-141q-52 0 -83 -7t-47 -25.5t-20.5 -42.5t-4.5 -67v-501 q0 -110 -44.5 -157.5t-162.5 -47.5h-225v125z" />
<glyph unicode="~" horiz-adv-x="1079" d="M115 641q33 96 103.5 146.5t164.5 50.5q68 0 168.5 -38t153.5 -38t90 22t51 56l119 -43q-32 -96 -103 -146.5t-166 -50.5q-68 0 -168 39t-153 39q-52 0 -89 -22.5t-53 -57.5z" />
<glyph unicode="&#xa1;" horiz-adv-x="458" d="M127 0l47 1069h109l47 -1069h-203zM129 1241v193h201v-193h-201z" />
<glyph unicode="&#xa2;" horiz-adv-x="813" d="M80 735q0 253 76 361q68 95 192 116v154h156v-156q210 -40 248 -290l-156 -27q-13 92 -50.5 139t-121.5 47q-62 0 -99.5 -26t-54.5 -84q-22 -75 -22 -234q0 -158 22 -235q33 -111 154 -111q88 0 125 48.5t47 150.5l156 -25q-15 -120 -74.5 -201.5t-173.5 -103.5v-158 h-156v158q-123 21 -192 117q-76 108 -76 360z" />
<glyph unicode="&#xa3;" horiz-adv-x="1005" d="M12 133q0 72 54.5 113t154.5 41q89 0 164 -35q8 32 8 94q0 126 -43 234h-213v143h142q-7 13 -35 58t-37.5 62t-29.5 57.5t-27.5 67.5t-15 66t-7.5 78q0 156 96.5 251t286.5 95q384 0 399 -418l-176 -30q-4 158 -55.5 225.5t-167.5 67.5q-60 0 -101.5 -16t-62.5 -44.5 t-30 -61t-9 -73.5q0 -51 15 -104.5t32 -90t48 -96t47 -94.5h350v-143h-299q24 -94 24 -199q0 -106 -26 -186q107 -60 198 -60q49 0 70.5 18.5t21.5 69.5q0 29 -4 58h174q5 -68 5 -80q0 -221 -242 -221q-63 0 -119.5 16.5t-89.5 35t-78 50.5q-70 -98 -215 -98q-89 0 -148 37 t-59 112zM131 127q0 -27 24 -42t66 -15q92 0 129 69q-66 39 -133 39q-86 0 -86 -51z" />
<glyph unicode="&#xa5;" horiz-adv-x="1015" d="M53 1434h197l256 -576l260 576h197l-332 -680h295v-138h-330v-163h330v-138h-330v-315h-176v315h-330v138h330v163h-330v138h295z" />
<glyph unicode="&#xa6;" horiz-adv-x="768" d="M301 -334v830h164v-830h-164zM301 705v831h164v-831h-164z" />
<glyph unicode="&#xa7;" horiz-adv-x="894" d="M96 217l170 31q13 -94 55 -143.5t128 -49.5q78 0 118.5 40.5t40.5 109.5q0 29 -7 54t-23.5 46.5t-32.5 37t-46.5 34t-51 30t-61 32t-62.5 32.5q-46 24 -79.5 48t-66 58t-49 79t-16.5 100q0 78 32.5 132t94.5 99q-127 98 -127 256q0 143 91.5 223t241.5 80q159 0 248 -88 t105 -225l-170 -31q-13 94 -54 143.5t-126 49.5q-80 0 -121 -40t-41 -110q0 -26 6.5 -48.5t16 -40t28 -35.5t34 -30t43.5 -28.5t47 -26.5t53.5 -28t55.5 -29q46 -24 79.5 -48t66 -58t49 -79t16.5 -100q0 -79 -33 -133t-96 -100q129 -96 129 -254q0 -143 -91.5 -223 t-241.5 -80q-159 0 -248 88t-105 225zM266 793q0 -36 13.5 -67.5t31 -53t52.5 -45.5t59 -37t71 -36.5t70 -35.5q66 66 66 139q0 36 -13.5 67.5t-31 52.5t-52 44.5t-59.5 36.5t-71 36t-70 36q-66 -69 -66 -137z" />
<glyph unicode="&#xa8;" horiz-adv-x="1024" d="M276 1044v179h173v-179h-173zM575 1044v179h173v-179h-173z" />
<glyph unicode="&#xa9;" horiz-adv-x="1564" d="M104 717q0 156 34 281t94.5 209.5t146.5 141t186 82t217 25.5t217 -25.5t186 -82t146.5 -141t94.5 -209.5t34 -281t-34 -281t-94.5 -210t-146.5 -141.5t-186 -82t-217 -25.5t-217 25.5t-186 82t-146.5 141.5t-94.5 210t-34 281zM201 717q0 -173 43 -301t123 -203.5 t183 -111t232 -35.5t232.5 35.5t183 111t123 203.5t43.5 301t-43.5 301t-123 203.5t-183 111t-232.5 35.5t-232 -35.5t-183 -111t-123 -203.5t-43 -301zM489 715q0 165 29.5 248t81.5 122q72 52 186 52q252 0 287 -263l-139 -26q-3 42 -9.5 68t-21.5 51t-44.5 37t-74.5 12 q-39 0 -65.5 -11t-43 -31t-24.5 -59t-11 -83t-3 -115t3 -114.5t11 -82.5t24.5 -59.5t43 -31.5t65.5 -11q45 0 74.5 12.5t44.5 39t21.5 53t9.5 69.5l139 -27q-30 -268 -285 -268q-118 0 -188 51q-53 39 -82 123.5t-29 243.5z" />
<glyph unicode="&#xaa;" horiz-adv-x="636" d="M47 977q0 110 89 159.5t270 49.5v35q0 65 -19 92.5t-74 27.5q-49 0 -77.5 -23t-32.5 -79l-125 25q26 180 239 180q111 0 166.5 -54.5t55.5 -172.5v-267q0 -28 14 -38.5t47 -10.5v-80q-13 -8 -55 -8q-102 0 -123 64q-42 -70 -168 -70q-92 0 -149.5 41t-57.5 129zM84 600 v107h477v-107h-477zM184 989q0 -88 105 -88q117 0 117 94v109q-125 0 -173.5 -26.5t-48.5 -88.5z" />
<glyph unicode="&#xab;" horiz-adv-x="796" d="M59 465l195 377h158l-179 -377l179 -377h-158zM379 465l194 377h158l-178 -377l178 -377h-158z" />
<glyph unicode="&#xad;" horiz-adv-x="641" d="M113 575v158h415v-158h-415z" />
<glyph unicode="&#xae;" horiz-adv-x="948" d="M74 1020q0 222 109.5 330t289.5 108q87 0 158 -25t126.5 -76.5t86 -137.5t30.5 -199t-30.5 -199t-86 -137.5t-126.5 -76.5t-158 -25q-180 0 -289.5 108t-109.5 330zM145 1020q0 -194 86.5 -283.5t241.5 -89.5t241.5 89.5t86.5 283.5q0 193 -87 283t-241 90t-241 -90 t-87 -283zM305 782v482h187q89 0 126 -29.5t37 -87.5q0 -91 -80 -111v-2q45 -1 60.5 -20t15.5 -53v-179h-96v144q0 31 -12.5 44t-46.5 13q-42 0 -95 -16v-185h-96zM401 1032q93 16 123.5 37.5t30.5 58.5q0 32 -17.5 46t-58.5 14h-78v-156z" />
<glyph unicode="&#xaf;" horiz-adv-x="1024" d="M276 1044v125h472v-125h-472z" />
<glyph unicode="&#xb0;" horiz-adv-x="667" d="M63 1176q0 116 75.5 194t195.5 78t195 -78t75 -194t-75 -193.5t-195 -77.5t-195.5 77.5t-75.5 193.5zM190 1176q0 -66 39 -109t105 -43t104.5 43t38.5 109t-38.5 108.5t-104.5 42.5t-105 -42.5t-39 -108.5z" />
<glyph unicode="&#xb1;" horiz-adv-x="962" d="M117 0v158h729v-158h-729zM117 655v162h284v303h162v-303h283v-162h-283v-305h-162v305h-284z" />
<glyph unicode="&#xb2;" horiz-adv-x="595" d="M35 813v86q92 81 138.5 124.5t99.5 98t76 91.5t38.5 79.5t15.5 87.5q0 127 -114 127q-56 0 -86.5 -36t-36.5 -125l-127 22q12 123 77.5 186.5t182.5 63.5q65 0 114 -20t76 -54.5t39.5 -75t12.5 -86.5q0 -80 -38.5 -157.5t-101 -144t-165.5 -150.5h315v-117h-516z" />
<glyph unicode="&#xb3;" horiz-adv-x="610" d="M41 1049l131 22q10 -90 34 -127t93 -37q65 0 93 39.5t28 126.5q0 38 -1.5 59.5t-10 40t-18 26t-35 13.5t-51.5 7t-77 2l-16 77l180 195h-336v109h498v-91l-174 -200q55 -6 91.5 -26t54.5 -53t25 -68t7 -83q0 -284 -258 -284q-119 0 -181 61t-77 191z" />
<glyph unicode="&#xb4;" horiz-adv-x="1024" d="M440 1044l97 279h192l-149 -279h-140z" />
<glyph unicode="&#xb6;" horiz-adv-x="1165" d="M109 717q0 182 11.5 296.5t43.5 194.5q52 128 161 177t308 49h487v-117h-137v-1200h137v-117h-487q-197 0 -307 49t-162 176q-32 80 -43.5 195t-11.5 297zM676 117h151v1200h-151v-1200z" />
<glyph unicode="&#xb7;" horiz-adv-x="425" d="M113 618v195h200v-195h-200z" />
<glyph unicode="&#xb8;" horiz-adv-x="1024" d="M356 -240q65 -14 121 -14q49 0 65.5 12.5t16.5 42.5q0 34 -25.5 43t-113.5 9l59 192h70l-37 -131q96 -2 138 -24.5t42 -84.5q0 -70 -46 -99.5t-161 -29.5q-66 0 -129 13v71z" />
<glyph unicode="&#xb9;" horiz-adv-x="376" d="M27 1559l135 47h110v-793h-133v674l-90 -19z" />
<glyph unicode="&#xba;" horiz-adv-x="630" d="M66 1122q0 169 59 240q67 82 190 82q124 0 191 -82q59 -71 59 -240q0 -164 -59 -237q-65 -80 -191 -80q-125 0 -190 80q-59 73 -59 237zM102 600v107h426v-107h-426zM203 1122q0 -125 25 -169t87 -44q61 0 87 44.5t26 168.5q0 126 -26 170.5t-87 44.5q-62 0 -87 -44 t-25 -171z" />
<glyph unicode="&#xbb;" horiz-adv-x="796" d="M66 88l178 377l-178 377h157l195 -377l-195 -377h-157zM385 88l178 377l-178 377h158l194 -377l-194 -377h-158z" />
<glyph unicode="&#xbc;" horiz-adv-x="1392" d="M100 1391l136 47h108v-791h-131v672l-90 -19zM147 0l865 1434h133l-864 -1434h-134zM750 326l331 462h150v-460h88v-105h-88v-223h-131v223h-332zM879 328h221v317z" />
<glyph unicode="&#xbd;" horiz-adv-x="1490" d="M100 1391l136 47h108v-791h-131v672l-90 -19zM147 0l865 1434h133l-864 -1434h-134zM870 0v84q75 67 118 106t91.5 87t73 79.5t47 68.5t31 70t8.5 70q0 129 -115 129q-56 0 -86.5 -36.5t-36.5 -125.5l-127 23q12 123 78 186.5t183 63.5q65 0 113.5 -20t75.5 -54.5 t39.5 -75t12.5 -86.5q0 -80 -38.5 -157.5t-101 -144t-165.5 -150.5h315v-117h-516z" />
<glyph unicode="&#xbe;" horiz-adv-x="1523" d="M88 881l131 22q10 -90 34 -127t93 -37q65 0 93 39.5t28 126.5q0 38 -1.5 59.5t-10 40t-18 26t-35 13.5t-51.5 7t-77 2l-16 77l180 195h-336v109h498v-91l-174 -200q55 -6 91.5 -26t54.5 -53t25 -68t7 -83q0 -284 -258 -284q-119 0 -181 61t-77 191zM281 0l864 1434h133 l-864 -1434h-133zM883 326l331 462h150v-460h88v-105h-88v-223h-131v223h-332zM1012 328h221v317z" />
<glyph unicode="&#xbf;" horiz-adv-x="899" d="M84 328q0 51 11.5 101t26 85.5t42.5 79.5t46 67.5t52 65.5q72 89 106 156.5t44 165.5h153q-7 -122 -47.5 -209.5t-122.5 -190.5q-49 -62 -70.5 -93t-41 -86.5t-19.5 -119.5q0 -221 191 -221q93 0 147 53t74 172l172 -30q-26 -164 -132 -257.5t-270 -93.5 q-168 0 -265 96.5t-97 258.5zM393 1231v203h193v-203h-193z" />
<glyph unicode="&#xc0;" horiz-adv-x="1038" d="M27 0l399 1434h186l400 -1434h-187l-71 276h-469l-72 -276h-186zM289 1823h203l106 -275h-154zM322 418h395l-197 764h-2z" />
<glyph unicode="&#xc1;" horiz-adv-x="1038" d="M27 0l399 1434h186l400 -1434h-187l-71 276h-469l-72 -276h-186zM322 418h395l-197 764h-2zM438 1548l107 275h203l-156 -275h-154z" />
<glyph unicode="&#xc2;" horiz-adv-x="1038" d="M27 0l399 1434h186l400 -1434h-187l-71 276h-469l-72 -276h-186zM274 1548l152 275h184l152 -275h-127l-117 148l-117 -148h-127zM322 418h395l-197 764h-2z" />
<glyph unicode="&#xc3;" horiz-adv-x="1038" d="M27 0l399 1434h186l400 -1434h-187l-71 276h-469l-72 -276h-186zM260 1548q0 122 35.5 177t120.5 55q37 0 66 -11.5t47.5 -28t33.5 -32.5t32 -27.5t36 -11.5q30 0 41.5 21.5t11.5 78.5h92q0 -122 -35 -176.5t-120 -54.5q-37 0 -66 11.5t-47.5 28t-33.5 32.5t-32 27.5 t-36 11.5q-30 0 -42 -22.5t-12 -78.5h-92zM322 418h395l-197 764h-2z" />
<glyph unicode="&#xc4;" horiz-adv-x="1038" d="M27 0l399 1434h186l400 -1434h-187l-71 276h-469l-72 -276h-186zM250 1548v185h190v-185h-190zM322 418h395l-197 764h-2zM596 1548v185h190v-185h-190z" />
<glyph unicode="&#xc5;" horiz-adv-x="1038" d="M27 0l397 1430q-47 21 -74.5 61t-27.5 94q0 77 55.5 125.5t140.5 48.5q86 0 141.5 -48.5t55.5 -125.5q0 -53 -28 -92.5t-75 -60.5l400 -1432h-187l-71 276h-469l-72 -276h-186zM322 418h395l-197 764h-2zM434 1585q0 -38 23 -61t61 -23t61 23t23 61t-23 62t-61 24 t-61 -24t-23 -62z" />
<glyph unicode="&#xc6;" horiz-adv-x="1396" d="M-2 0l463 1434h848v-156h-588l49 -416h377v-153h-361l64 -547h465v-162h-617l-28 279h-404l-82 -279h-186zM309 426h344l-88 854h-4z" />
<glyph unicode="&#xc7;" horiz-adv-x="1089" d="M111 717q0 381 71 534q97 209 383 209q204 0 305.5 -108t130.5 -316l-174 -30q-6 51 -13 85t-19.5 70.5t-30.5 59.5t-45.5 42.5t-66 28t-89.5 8.5q-93 0 -149.5 -33t-83.5 -112q-37 -101 -37 -438t37 -438q27 -79 82.5 -112.5t148.5 -33.5q76 0 126 19.5t78.5 63.5 t41.5 97.5t20 139.5l177 -31q-23 -213 -120 -327.5t-294 -121.5l-17 -61q95 -3 142 -31t47 -98q0 -69 -50.5 -101t-162.5 -32q-76 0 -139 14v80q57 -14 118 -14q56 0 73 12t17 41q0 38 -24.5 47.5t-116.5 9.5l39 135q-248 18 -334 207q-71 153 -71 535z" />
<glyph unicode="&#xc8;" horiz-adv-x="1021" d="M156 0v1434h774v-158h-602v-414h434v-153h-434v-547h602v-162h-774zM313 1823h203l107 -275h-154z" />
<glyph unicode="&#xc9;" horiz-adv-x="1021" d="M156 0v1434h774v-158h-602v-414h434v-153h-434v-547h602v-162h-774zM463 1548l106 275h203l-156 -275h-153z" />
<glyph unicode="&#xca;" horiz-adv-x="1021" d="M156 0v1434h774v-158h-602v-414h434v-153h-434v-547h602v-162h-774zM299 1548l152 275h184l151 -275h-127l-116 148l-117 -148h-127z" />
<glyph unicode="&#xcb;" horiz-adv-x="1021" d="M156 0v1434h774v-158h-602v-414h434v-153h-434v-547h602v-162h-774zM274 1548v185h191v-185h-191zM621 1548v185h190v-185h-190z" />
<glyph unicode="&#xcc;" horiz-adv-x="487" d="M12 1823h203l107 -275h-154zM156 0v1434h176v-1434h-176z" />
<glyph unicode="&#xcd;" horiz-adv-x="487" d="M156 0v1434h176v-1434h-176zM162 1548l106 275h203l-156 -275h-153z" />
<glyph unicode="&#xce;" horiz-adv-x="487" d="M-2 1548l152 275h184l151 -275h-127l-116 148l-117 -148h-127zM156 0v1434h176v-1434h-176z" />
<glyph unicode="&#xcf;" horiz-adv-x="487" d="M-27 1548v185h191v-185h-191zM156 0v1434h176v-1434h-176zM319 1548v185h191v-185h-191z" />
<glyph unicode="&#xd0;" horiz-adv-x="1140" d="M4 711v149h152v574h348q197 0 309 -49t162 -177q33 -83 44 -199t11 -292t-11 -292.5t-44 -199.5q-50 -127 -162 -176t-309 -49h-348v711h-152zM330 158h190q129 0 200 35.5t97 113.5q31 97 31 410q0 312 -31 409q-26 78 -97 114t-200 36h-190v-416h262v-149h-262v-553z " />
<glyph unicode="&#xd1;" horiz-adv-x="1187" d="M156 0v1434h186l516 -1102h2v1102h172v-1434h-186l-514 1100h-2v-1100h-174zM336 1548q0 122 35.5 177t120.5 55q37 0 66 -11.5t47.5 -28t33.5 -32.5t32 -27.5t36 -11.5q30 0 41.5 21.5t11.5 78.5h92q0 -122 -35.5 -176.5t-120.5 -54.5q-37 0 -66 11.5t-47.5 28 t-33.5 32.5t-32 27.5t-36 11.5q-29 0 -41 -22t-12 -79h-92z" />
<glyph unicode="&#xd2;" horiz-adv-x="1126" d="M111 717q0 381 71 534q47 100 143 154.5t238 54.5q141 0 239 -54t144 -155q70 -154 70 -534q0 -381 -70 -535q-46 -101 -144 -155t-239 -54q-142 0 -238 54.5t-143 154.5q-71 153 -71 535zM293 717q0 -337 37 -438q27 -80 82.5 -113t150.5 -33q94 0 152 32.5t84 113.5 q37 117 37 438t-37 438q-26 81 -84 113t-152 32q-95 0 -150.5 -32.5t-82.5 -112.5q-37 -101 -37 -438zM334 1823h203l106 -275h-154z" />
<glyph unicode="&#xd3;" horiz-adv-x="1126" d="M111 717q0 381 71 534q47 100 143 154.5t238 54.5q141 0 239 -54t144 -155q70 -154 70 -534q0 -381 -70 -535q-46 -101 -144 -155t-239 -54q-142 0 -238 54.5t-143 154.5q-71 153 -71 535zM293 717q0 -337 37 -438q27 -80 82.5 -113t150.5 -33q94 0 152 32.5t84 113.5 q37 117 37 438t-37 438q-26 81 -84 113t-152 32q-95 0 -150.5 -32.5t-82.5 -112.5q-37 -101 -37 -438zM483 1548l107 275h203l-156 -275h-154z" />
<glyph unicode="&#xd4;" horiz-adv-x="1126" d="M111 717q0 381 71 534q47 100 143 154.5t238 54.5q141 0 239 -54t144 -155q70 -154 70 -534q0 -381 -70 -535q-46 -101 -144 -155t-239 -54q-142 0 -238 54.5t-143 154.5q-71 153 -71 535zM293 717q0 -337 37 -438q27 -80 82.5 -113t150.5 -33q94 0 152 32.5t84 113.5 q37 117 37 438t-37 438q-26 81 -84 113t-152 32q-95 0 -150.5 -32.5t-82.5 -112.5q-37 -101 -37 -438zM319 1548l152 275h184l152 -275h-127l-117 148l-117 -148h-127z" />
<glyph unicode="&#xd5;" horiz-adv-x="1126" d="M111 717q0 381 71 534q47 100 143 154.5t238 54.5q141 0 239 -54t144 -155q70 -154 70 -534q0 -381 -70 -535q-46 -101 -144 -155t-239 -54q-142 0 -238 54.5t-143 154.5q-71 153 -71 535zM293 717q0 -337 37 -438q27 -80 82.5 -113t150.5 -33q94 0 152 32.5t84 113.5 q37 117 37 438t-37 438q-26 81 -84 113t-152 32q-95 0 -150.5 -32.5t-82.5 -112.5q-37 -101 -37 -438zM305 1548q0 122 35.5 177t120.5 55q37 0 66 -11.5t47.5 -28t33.5 -32.5t32 -27.5t36 -11.5q30 0 41.5 21.5t11.5 78.5h92q0 -122 -35 -176.5t-120 -54.5q-37 0 -66 11.5 t-47.5 28t-33.5 32.5t-32 27.5t-36 11.5q-30 0 -42 -22.5t-12 -78.5h-92z" />
<glyph unicode="&#xd6;" horiz-adv-x="1126" d="M111 717q0 381 71 534q47 100 143 154.5t238 54.5q141 0 239 -54t144 -155q70 -154 70 -534q0 -381 -70 -535q-46 -101 -144 -155t-239 -54q-142 0 -238 54.5t-143 154.5q-71 153 -71 535zM293 717q0 -337 37 -438q27 -80 82.5 -113t150.5 -33q94 0 152 32.5t84 113.5 q37 117 37 438t-37 438q-26 81 -84 113t-152 32q-95 0 -150.5 -32.5t-82.5 -112.5q-37 -101 -37 -438zM295 1548v185h190v-185h-190zM641 1548v185h190v-185h-190z" />
<glyph unicode="&#xd7;" horiz-adv-x="933" d="M119 526l225 191l-225 190l100 121l248 -209l248 209l100 -121l-227 -190l227 -191l-100 -118l-248 206l-248 -206z" />
<glyph unicode="&#xd8;" horiz-adv-x="1126" d="M111 717q0 381 71 534q47 100 143 154.5t238 54.5q128 0 215 -43l27 68h125l-56 -133q47 -47 72 -101q70 -154 70 -534q0 -381 -70 -535q-46 -101 -144 -155t-239 -54q-126 0 -213 41l-26 -65h-123l53 131q-44 41 -72 102q-71 153 -71 535zM293 717q0 -342 39 -447 l383 998q-55 32 -152 32q-95 0 -150.5 -32.5t-82.5 -112.5q-37 -101 -37 -438zM414 166q57 -33 151 -33q95 0 151 33t83 113q37 101 37 438q0 341 -39 446z" />
<glyph unicode="&#xd9;" horiz-adv-x="1148" d="M147 463v971h177v-906q0 -190 16 -247q23 -80 82.5 -113t150.5 -33q193 0 236 146q16 57 16 247v906h176v-971q0 -116 -20 -201.5t-67.5 -152.5t-132.5 -101.5t-208 -34.5q-122 0 -207 34.5t-132 101.5t-67 152.5t-20 201.5zM344 1823h203l106 -275h-153z" />
<glyph unicode="&#xda;" horiz-adv-x="1148" d="M147 463v971h177v-906q0 -190 16 -247q23 -80 82.5 -113t150.5 -33q193 0 236 146q16 57 16 247v906h176v-971q0 -116 -20 -201.5t-67.5 -152.5t-132.5 -101.5t-208 -34.5q-122 0 -207 34.5t-132 101.5t-67 152.5t-20 201.5zM494 1548l106 275h203l-156 -275h-153z" />
<glyph unicode="&#xdb;" horiz-adv-x="1148" d="M147 463v971h177v-906q0 -190 16 -247q23 -80 82.5 -113t150.5 -33q193 0 236 146q16 57 16 247v906h176v-971q0 -116 -20 -201.5t-67.5 -152.5t-132.5 -101.5t-208 -34.5q-122 0 -207 34.5t-132 101.5t-67 152.5t-20 201.5zM330 1548l151 275h185l151 -275h-127 l-117 148l-116 -148h-127z" />
<glyph unicode="&#xdc;" horiz-adv-x="1148" d="M147 463v971h177v-906q0 -190 16 -247q23 -80 82.5 -113t150.5 -33q193 0 236 146q16 57 16 247v906h176v-971q0 -116 -20 -201.5t-67.5 -152.5t-132.5 -101.5t-208 -34.5q-122 0 -207 34.5t-132 101.5t-67 152.5t-20 201.5zM305 1548v185h191v-185h-191zM651 1548v185 h191v-185h-191z" />
<glyph unicode="&#xdd;" horiz-adv-x="958" d="M18 1434h197l264 -586l264 586h197l-373 -758v-676h-176v676zM399 1548l107 275h203l-156 -275h-154z" />
<glyph unicode="&#xde;" horiz-adv-x="1085" d="M156 0v1434h174v-301h248q109 0 190 -24t128 -61t75.5 -92.5t37.5 -108.5t9 -118q0 -66 -9.5 -119.5t-38.5 -108.5t-76.5 -92.5t-129 -61t-191.5 -23.5h-243v-324h-174zM330 479h229q141 0 208 54.5t67 193.5q0 140 -67 194t-208 54h-229v-496z" />
<glyph unicode="&#xdf;" horiz-adv-x="864" d="M113 0v1167q0 279 262 279q76 0 130 -22t82.5 -61.5t41 -84.5t12.5 -100q0 -87 -29 -156t-82 -104q75 -7 127.5 -43.5t81 -99.5t40.5 -138.5t12 -175.5q0 -251 -75 -361t-249 -110q-76 0 -107 2v145q37 -4 101 -4q62 0 94.5 24t50 96t17.5 210q0 144 -20 215t-62 95 t-127 24h-43v135q73 22 103 76.5t30 138.5q0 80 -28.5 119t-92.5 39q-60 0 -84.5 -36t-24.5 -116v-1153h-161z" />
<glyph unicode="&#xe0;" horiz-adv-x="849" d="M51 244q0 165 129.5 238t386.5 73v53q0 109 -29.5 153t-121.5 44q-78 0 -122 -34.5t-50 -125.5l-154 31q16 96 63 156.5t112 84t153 23.5q155 0 231 -77t76 -253v-424q0 -41 22 -56t72 -15v-111q-23 -10 -65 -10q-135 0 -166 92q-59 -100 -244 -100q-130 0 -211.5 61 t-81.5 197zM205 1323h192l95 -279h-138zM219 256q0 -74 39.5 -106.5t118.5 -32.5q190 0 190 151v168q-134 0 -211.5 -21t-107 -58.5t-29.5 -100.5z" />
<glyph unicode="&#xe1;" horiz-adv-x="849" d="M51 244q0 165 129.5 238t386.5 73v53q0 109 -29.5 153t-121.5 44q-78 0 -122 -34.5t-50 -125.5l-154 31q16 96 63 156.5t112 84t153 23.5q155 0 231 -77t76 -253v-424q0 -41 22 -56t72 -15v-111q-23 -10 -65 -10q-135 0 -166 92q-59 -100 -244 -100q-130 0 -211.5 61 t-81.5 197zM219 256q0 -74 39.5 -106.5t118.5 -32.5q190 0 190 151v168q-134 0 -211.5 -21t-107 -58.5t-29.5 -100.5zM348 1044l96 279h193l-150 -279h-139z" />
<glyph unicode="&#xe2;" horiz-adv-x="849" d="M51 244q0 165 129.5 238t386.5 73v53q0 109 -29.5 153t-121.5 44q-78 0 -122 -34.5t-50 -125.5l-154 31q16 96 63 156.5t112 84t153 23.5q155 0 231 -77t76 -253v-424q0 -41 22 -56t72 -15v-111q-23 -10 -65 -10q-135 0 -166 92q-59 -100 -244 -100q-130 0 -211.5 61 t-81.5 197zM184 1044l160 279h152l157 -279h-129l-104 152l-107 -152h-129zM219 256q0 -74 39.5 -106.5t118.5 -32.5q190 0 190 151v168q-134 0 -211.5 -21t-107 -58.5t-29.5 -100.5z" />
<glyph unicode="&#xe3;" horiz-adv-x="849" d="M51 244q0 165 129.5 238t386.5 73v53q0 109 -29.5 153t-121.5 44q-78 0 -122 -34.5t-50 -125.5l-154 31q16 96 63 156.5t112 84t153 23.5q155 0 231 -77t76 -253v-424q0 -41 22 -56t72 -15v-111q-23 -10 -65 -10q-135 0 -166 92q-59 -100 -244 -100q-130 0 -211.5 61 t-81.5 197zM168 1051q0 113 35.5 162t115.5 49q43 0 76 -17.5t50 -38t38.5 -38t44.5 -17.5q54 0 54 92h90q0 -113 -36 -162t-116 -49q-36 0 -64 11t-45.5 27t-32.5 32.5t-31.5 27.5t-35.5 11q-29 0 -41 -21.5t-12 -68.5h-90zM219 256q0 -74 39.5 -106.5t118.5 -32.5 q190 0 190 151v168q-134 0 -211.5 -21t-107 -58.5t-29.5 -100.5z" />
<glyph unicode="&#xe4;" horiz-adv-x="849" d="M51 244q0 165 129.5 238t386.5 73v53q0 109 -29.5 153t-121.5 44q-78 0 -122 -34.5t-50 -125.5l-154 31q16 96 63 156.5t112 84t153 23.5q155 0 231 -77t76 -253v-424q0 -41 22 -56t72 -15v-111q-23 -10 -65 -10q-135 0 -166 92q-59 -100 -244 -100q-130 0 -211.5 61 t-81.5 197zM184 1044v179h172v-179h-172zM219 256q0 -74 39.5 -106.5t118.5 -32.5q190 0 190 151v168q-134 0 -211.5 -21t-107 -58.5t-29.5 -100.5zM483 1044v179h172v-179h-172z" />
<glyph unicode="&#xe5;" horiz-adv-x="849" d="M51 244q0 165 129.5 238t386.5 73v53q0 109 -29.5 153t-121.5 44q-78 0 -122 -34.5t-50 -125.5l-154 31q16 96 63 156.5t112 84t153 23.5q155 0 231 -77t76 -253v-424q0 -41 22 -56t72 -15v-111q-23 -10 -65 -10q-135 0 -166 92q-59 -100 -244 -100q-130 0 -211.5 61 t-81.5 197zM219 256q0 -74 39.5 -106.5t118.5 -32.5q190 0 190 151v168q-134 0 -211.5 -21t-107 -58.5t-29.5 -100.5zM233 1190q0 76 53 123t134 47q80 0 133 -47t53 -123t-53 -123t-133 -47q-81 0 -134 47t-53 123zM340 1190q0 -39 22 -60.5t58 -21.5t58 21.5t22 60.5 q0 38 -22 61t-58 23t-58 -23t-22 -61z" />
<glyph unicode="&#xe6;" horiz-adv-x="1306" d="M49 240q0 169 126.5 240t385.5 71v57q0 109 -29.5 153t-121.5 44q-77 0 -121 -34.5t-51 -125.5l-154 31q44 264 326 264q177 0 241 -102q80 102 252 102q92 0 154 -28.5t104 -88.5q42 -58 60 -149.5t18 -239.5h-520q4 -136 24 -203q16 -56 50.5 -83t101.5 -27 q87 0 124 46.5t48 147.5l156 -26q-43 -307 -328 -307q-198 0 -274 147q-53 -143 -275 -143q-132 0 -214.5 60.5t-82.5 193.5zM217 254q0 -73 39.5 -105t120.5 -32q184 0 184 151v168q-135 0 -211.5 -21t-104.5 -59t-28 -102zM721 553h348q-2 34 -3 46t-3.5 41.5t-6 41 t-10 34t-14.5 32t-21 24t-29 20t-37.5 10.5t-47.5 5q-64 0 -100.5 -24t-53.5 -81q-19 -64 -22 -149z" />
<glyph unicode="&#xe7;" horiz-adv-x="813" d="M80 465q0 252 76 360q87 123 268 123q283 0 328 -297l-156 -26q-13 91 -50 137.5t-122 46.5q-63 0 -100 -25.5t-54 -83.5q-22 -75 -22 -235q0 -159 22 -234q17 -58 54.5 -84t99.5 -26q90 0 126 48t46 150l156 -24q-17 -137 -91 -222t-219 -91l-18 -68q96 -2 138 -24.5 t42 -84.5q0 -70 -46 -99.5t-161 -29.5q-66 0 -129 13v71q65 -14 121 -14q49 0 65.5 12.5t16.5 42.5q0 34 -25.5 43t-113.5 9l41 133q-146 15 -217 120q-76 108 -76 359z" />
<glyph unicode="&#xe8;" horiz-adv-x="837" d="M80 465q0 252 76 360q86 123 268 123q181 0 268 -123q43 -60 59.5 -153.5t16.5 -239.5h-524q4 -132 24 -201q33 -110 156 -110q88 0 125.5 47t48.5 147l156 -26q-19 -138 -98 -222.5t-232 -84.5q-182 0 -268 124q-76 108 -76 359zM209 1323h192l95 -279h-138zM246 559 h352q-3 39 -4.5 57.5t-7 51.5t-12 49.5t-19.5 38.5t-30 32.5t-42.5 18.5t-58.5 8q-63 0 -100 -26t-54 -84q-17 -59 -24 -146z" />
<glyph unicode="&#xe9;" horiz-adv-x="837" d="M80 465q0 252 76 360q86 123 268 123q181 0 268 -123q43 -60 59.5 -153.5t16.5 -239.5h-524q4 -132 24 -201q33 -110 156 -110q88 0 125.5 47t48.5 147l156 -26q-19 -138 -98 -222.5t-232 -84.5q-182 0 -268 124q-76 108 -76 359zM246 559h352q-3 39 -4.5 57.5t-7 51.5 t-12 49.5t-19.5 38.5t-30 32.5t-42.5 18.5t-58.5 8q-63 0 -100 -26t-54 -84q-17 -59 -24 -146zM352 1044l97 279h192l-149 -279h-140z" />
<glyph unicode="&#xea;" horiz-adv-x="837" d="M80 465q0 252 76 360q86 123 268 123q181 0 268 -123q43 -60 59.5 -153.5t16.5 -239.5h-524q4 -132 24 -201q33 -110 156 -110q88 0 125.5 47t48.5 147l156 -26q-19 -138 -98 -222.5t-232 -84.5q-182 0 -268 124q-76 108 -76 359zM188 1044l160 279h152l157 -279h-129 l-104 152l-107 -152h-129zM246 559h352q-3 39 -4.5 57.5t-7 51.5t-12 49.5t-19.5 38.5t-30 32.5t-42.5 18.5t-58.5 8q-63 0 -100 -26t-54 -84q-17 -59 -24 -146z" />
<glyph unicode="&#xeb;" horiz-adv-x="837" d="M80 465q0 252 76 360q86 123 268 123q181 0 268 -123q43 -60 59.5 -153.5t16.5 -239.5h-524q4 -132 24 -201q33 -110 156 -110q88 0 125.5 47t48.5 147l156 -26q-19 -138 -98 -222.5t-232 -84.5q-182 0 -268 124q-76 108 -76 359zM188 1044v179h172v-179h-172zM246 559 h352q-3 39 -4.5 57.5t-7 51.5t-12 49.5t-19.5 38.5t-30 32.5t-42.5 18.5t-58.5 8q-63 0 -100 -26t-54 -84q-17 -59 -24 -146zM487 1044v179h172v-179h-172z" />
<glyph unicode="&#xec;" horiz-adv-x="389" d="M-23 1323h193l94 -279h-137zM113 0v930h161v-930h-161z" />
<glyph unicode="&#xed;" horiz-adv-x="389" d="M113 0v930h161v-930h-161zM121 1044l96 279h193l-150 -279h-139z" />
<glyph unicode="&#xee;" horiz-adv-x="389" d="M-43 1044l160 279h151l158 -279h-129l-104 152l-107 -152h-129zM113 0v930h161v-930h-161z" />
<glyph unicode="&#xef;" horiz-adv-x="389" d="M-43 1044v179h172v-179h-172zM113 0v930h161v-930h-161zM256 1044v179h172v-179h-172z" />
<glyph unicode="&#xf0;" horiz-adv-x="851" d="M78 455q0 131 22 222.5t64 142.5t95.5 73t125.5 22q158 0 219 -96q-10 180 -69 287l-293 -111l-37 99l266 98q-93 96 -260 123l35 139q251 -67 368 -207l115 43l37 -98l-94 -35q94 -176 94 -551q0 -244 -37.5 -381t-109 -189t-195.5 -52q-179 0 -262.5 108.5t-83.5 362.5 zM244 455q0 -192 37.5 -262t136.5 -70q66 0 105 28t60 101t21 201q0 126 -20.5 198t-60 100.5t-107.5 28.5q-98 0 -135 -68.5t-37 -256.5z" />
<glyph unicode="&#xf1;" d="M113 0v930h145l16 -94q59 108 224 108q136 0 201 -84.5t65 -267.5v-592h-162v557q0 147 -33.5 198.5t-115.5 51.5q-40 0 -69.5 -10.5t-55.5 -37.5t-40 -81t-14 -133v-545h-161zM186 1051q0 113 36 162t116 49q43 0 76 -17.5t50 -38t38.5 -38t44.5 -17.5q53 0 53 92h90 q0 -113 -35.5 -162t-115.5 -49q-36 0 -64 11t-45.5 27t-32.5 32.5t-31.5 27.5t-35.5 11q-29 0 -41.5 -21.5t-12.5 -68.5h-90z" />
<glyph unicode="&#xf2;" horiz-adv-x="847" d="M80 465q0 252 76 360q86 123 268 123t268 -123q76 -108 76 -360q0 -250 -76 -361q-85 -122 -268 -122t-268 122q-76 111 -76 361zM209 1323h192l95 -279h-138zM248 465q0 -159 22 -234q17 -59 54 -84.5t100 -25.5t100 25.5t54 84.5q22 75 22 234q0 160 -22 235 q-17 58 -54 83.5t-100 25.5t-100 -25.5t-54 -83.5q-22 -75 -22 -235z" />
<glyph unicode="&#xf3;" horiz-adv-x="847" d="M80 465q0 252 76 360q86 123 268 123t268 -123q76 -108 76 -360q0 -250 -76 -361q-85 -122 -268 -122t-268 122q-76 111 -76 361zM248 465q0 -159 22 -234q17 -59 54 -84.5t100 -25.5t100 25.5t54 84.5q22 75 22 234q0 160 -22 235q-17 58 -54 83.5t-100 25.5t-100 -25.5 t-54 -83.5q-22 -75 -22 -235zM352 1044l97 279h192l-149 -279h-140z" />
<glyph unicode="&#xf4;" horiz-adv-x="847" d="M80 465q0 252 76 360q86 123 268 123t268 -123q76 -108 76 -360q0 -250 -76 -361q-85 -122 -268 -122t-268 122q-76 111 -76 361zM188 1044l160 279h152l157 -279h-129l-104 152l-107 -152h-129zM248 465q0 -159 22 -234q17 -59 54 -84.5t100 -25.5t100 25.5t54 84.5 q22 75 22 234q0 160 -22 235q-17 58 -54 83.5t-100 25.5t-100 -25.5t-54 -83.5q-22 -75 -22 -235z" />
<glyph unicode="&#xf5;" horiz-adv-x="847" d="M80 465q0 252 76 360q86 123 268 123t268 -123q76 -108 76 -360q0 -250 -76 -361q-85 -122 -268 -122t-268 122q-76 111 -76 361zM172 1051q0 113 36 162t116 49q43 0 76 -17.5t49.5 -38t38 -38t44.5 -17.5q54 0 54 92h90q0 -113 -36 -162t-116 -49q-36 0 -64 11 t-45.5 27t-32.5 32.5t-31.5 27.5t-35.5 11q-29 0 -41 -21.5t-12 -68.5h-90zM248 465q0 -159 22 -234q17 -59 54 -84.5t100 -25.5t100 25.5t54 84.5q22 75 22 234q0 160 -22 235q-17 58 -54 83.5t-100 25.5t-100 -25.5t-54 -83.5q-22 -75 -22 -235z" />
<glyph unicode="&#xf6;" horiz-adv-x="847" d="M80 465q0 252 76 360q86 123 268 123t268 -123q76 -108 76 -360q0 -250 -76 -361q-85 -122 -268 -122t-268 122q-76 111 -76 361zM188 1044v179h172v-179h-172zM248 465q0 -159 22 -234q17 -59 54 -84.5t100 -25.5t100 25.5t54 84.5q22 75 22 234q0 160 -22 235 q-17 58 -54 83.5t-100 25.5t-100 -25.5t-54 -83.5q-22 -75 -22 -235zM487 1044v179h172v-179h-172z" />
<glyph unicode="&#xf7;" horiz-adv-x="962" d="M117 637v162h729v-162h-729zM383 319v193h197v-193h-197zM383 922v192h197v-192h-197z" />
<glyph unicode="&#xf8;" horiz-adv-x="847" d="M80 465q0 252 76 360q86 123 268 123q110 0 172 -39l25 49h108l-57 -108q55 -61 75.5 -157.5t20.5 -227.5q0 -250 -76 -361q-85 -122 -268 -122q-104 0 -172 36l-23 -47h-108l55 107q-55 61 -75.5 158t-20.5 229zM248 465q0 -147 18 -215l264 528q-39 31 -106 31 q-63 0 -100 -26t-54 -85q-22 -75 -22 -233zM319 152q39 -31 105 -31q63 0 100 25.5t54 84.5q22 75 22 234q0 142 -16 215z" />
<glyph unicode="&#xf9;" horiz-adv-x="870" d="M109 338v592h163v-557q0 -146 33 -198t111 -52q41 0 70.5 11.5t55.5 39.5t39 83t13 136v537h164v-930h-142l-18 104q-54 -118 -223 -118q-136 0 -201 84.5t-65 267.5zM217 1323h193l94 -279h-137z" />
<glyph unicode="&#xfa;" horiz-adv-x="870" d="M109 338v592h163v-557q0 -146 33 -198t111 -52q41 0 70.5 11.5t55.5 39.5t39 83t13 136v537h164v-930h-142l-18 104q-54 -118 -223 -118q-136 0 -201 84.5t-65 267.5zM360 1044l97 279h192l-149 -279h-140z" />
<glyph unicode="&#xfb;" horiz-adv-x="870" d="M109 338v592h163v-557q0 -146 33 -198t111 -52q41 0 70.5 11.5t55.5 39.5t39 83t13 136v537h164v-930h-142l-18 104q-54 -118 -223 -118q-136 0 -201 84.5t-65 267.5zM197 1044l159 279h152l158 -279h-129l-105 152l-106 -152h-129z" />
<glyph unicode="&#xfc;" horiz-adv-x="870" d="M109 338v592h163v-557q0 -146 33 -198t111 -52q41 0 70.5 11.5t55.5 39.5t39 83t13 136v537h164v-930h-142l-18 104q-54 -118 -223 -118q-136 0 -201 84.5t-65 267.5zM197 1044v179h172v-179h-172zM496 1044v179h172v-179h-172z" />
<glyph unicode="&#xfd;" horiz-adv-x="745" d="M27 930h172l174 -682l176 682h170l-260 -918q-17 -58 -28 -94t-26 -75t-28.5 -61t-33.5 -45t-41 -34t-51 -21t-65.5 -13t-81.5 -3l-26 146q20 -2 55 -2q75 0 108 39.5t33 125.5q0 104 -38 238zM301 1044l96 279h193l-150 -279h-139z" />
<glyph unicode="&#xfe;" d="M113 -334v1768h161v-611q27 52 82 86.5t140 34.5q145 0 221 -106q76 -105 76 -369q0 -288 -88 -397q-72 -86 -213 -86q-161 0 -218 106v-426h-161zM270 465q0 -184 39 -258q44 -84 148 -84q57 0 94 25t53 85q19 68 19 230q0 164 -19 229q-30 115 -147 115 q-105 0 -148 -88q-39 -77 -39 -254z" />
<glyph unicode="&#xff;" horiz-adv-x="745" d="M27 930h172l174 -682l176 682h170l-260 -918q-17 -58 -28 -94t-26 -75t-28.5 -61t-33.5 -45t-41 -34t-51 -21t-65.5 -13t-81.5 -3l-26 146q20 -2 55 -2q75 0 108 39.5t33 125.5q0 104 -38 238zM137 1044v179h172v-179h-172zM436 1044v179h172v-179h-172z" />
<glyph unicode="&#x152;" horiz-adv-x="1429" d="M115 717q0 185 19.5 312t66.5 212q53 95 146 144t239 49h751v-158h-532v-414h362v-153h-362v-547h532v-162h-751q-282 0 -385 195q-48 89 -67 213.5t-19 308.5zM299 717q0 -311 41 -416q28 -76 89.5 -108.5t156.5 -32.5h43v1118h-43q-95 0 -156.5 -32.5t-89.5 -110.5 q-41 -105 -41 -418z" />
<glyph unicode="&#x153;" horiz-adv-x="1343" d="M78 465q0 252 76 360q86 123 266 123q175 0 256 -127q74 127 258 127q178 0 266 -123q41 -58 58.5 -150.5t17.5 -242.5h-520q4 -131 24 -201q17 -59 53 -84.5t99 -25.5q87 0 124 46.5t50 147.5l154 -26q-19 -139 -97.5 -223t-228.5 -84q-180 0 -258 129 q-74 -129 -256 -129q-181 0 -266 122q-76 111 -76 361zM246 465q0 -159 22 -234q17 -59 54 -84.5t98 -25.5q63 0 99.5 25.5t53.5 84.5q23 78 23 234q0 157 -23 235q-17 58 -54 83.5t-99 25.5q-61 0 -98 -25.5t-54 -83.5q-22 -75 -22 -235zM758 557h348q-4 53 -7.5 82.5 t-14.5 68t-28 58.5t-48.5 34.5t-75.5 14.5q-62 0 -97.5 -26t-52.5 -84q-16 -50 -24 -148z" />
<glyph unicode="&#x178;" horiz-adv-x="958" d="M18 1434h197l264 -586l264 586h197l-373 -758v-676h-176v676zM211 1548v185h190v-185h-190zM557 1548v185h191v-185h-191z" />
<glyph unicode="&#x2c6;" horiz-adv-x="1024" d="M276 1044l160 279h152l157 -279h-129l-104 152l-106 -152h-130z" />
<glyph unicode="&#x2dc;" horiz-adv-x="1024" d="M260 1051q0 113 36 162t116 49q43 0 76 -17.5t50 -38t38.5 -38t44.5 -17.5q53 0 53 92h90q0 -113 -36 -162t-116 -49q-36 0 -64 11t-45.5 27t-32.5 32.5t-31.5 27.5t-35.5 11q-29 0 -41 -21.5t-12 -68.5h-90z" />
<glyph unicode="&#x2000;" horiz-adv-x="911" />
<glyph unicode="&#x2001;" horiz-adv-x="1823" />
<glyph unicode="&#x2002;" horiz-adv-x="911" />
<glyph unicode="&#x2003;" horiz-adv-x="1823" />
<glyph unicode="&#x2004;" horiz-adv-x="607" />
<glyph unicode="&#x2005;" horiz-adv-x="455" />
<glyph unicode="&#x2006;" horiz-adv-x="303" />
<glyph unicode="&#x2007;" horiz-adv-x="303" />
<glyph unicode="&#x2008;" horiz-adv-x="227" />
<glyph unicode="&#x2009;" horiz-adv-x="364" />
<glyph unicode="&#x200a;" horiz-adv-x="101" />
<glyph unicode="&#x2010;" horiz-adv-x="641" d="M113 575v158h415v-158h-415z" />
<glyph unicode="&#x2011;" horiz-adv-x="641" d="M113 575v158h415v-158h-415z" />
<glyph unicode="&#x2012;" horiz-adv-x="641" d="M113 575v158h415v-158h-415z" />
<glyph unicode="&#x2013;" horiz-adv-x="935" d="M113 580v153h710v-153h-710z" />
<glyph unicode="&#x2014;" horiz-adv-x="1447" d="M113 578v155h1222v-155h-1222z" />
<glyph unicode="&#x2018;" horiz-adv-x="425" d="M113 1004v163l123 289l73 -24l-78 -234h82v-194h-200z" />
<glyph unicode="&#x2019;" horiz-adv-x="425" d="M113 1239v195h200v-164l-123 -289l-73 25l78 233h-82z" />
<glyph unicode="&#x201a;" horiz-adv-x="425" d="M113 0v195h200v-164l-123 -289l-73 25l78 233h-82z" />
<glyph unicode="&#x201c;" horiz-adv-x="716" d="M113 1004v163l123 289l73 -22l-80 -236h84v-194h-200zM403 1004v163l123 289l74 -22l-78 -236h82v-194h-201z" />
<glyph unicode="&#x201d;" horiz-adv-x="716" d="M113 1239v195h200v-164l-123 -289l-73 23l78 235h-82zM403 1239v195h201v-164l-123 -289l-73 23l79 235h-84z" />
<glyph unicode="&#x201e;" horiz-adv-x="716" d="M113 0v195h200v-164l-123 -289l-73 22l78 236h-82zM403 0v195h201v-164l-123 -289l-73 22l79 236h-84z" />
<glyph unicode="&#x2022;" horiz-adv-x="790" d="M186 727q0 91 58.5 151t150.5 60t151.5 -60t59.5 -151q0 -92 -59.5 -151.5t-151.5 -59.5t-150.5 59.5t-58.5 151.5z" />
<glyph unicode="&#x2026;" horiz-adv-x="1368" d="M141 0v195h201v-195h-201zM584 0v195h200v-195h-200zM1026 0v195h201v-195h-201z" />
<glyph unicode="&#x202f;" horiz-adv-x="364" />
<glyph unicode="&#x2039;" horiz-adv-x="479" d="M53 465l197 377h160l-179 -377l179 -377h-160z" />
<glyph unicode="&#x203a;" horiz-adv-x="479" d="M70 88l178 377l-178 377h159l197 -377l-197 -377h-159z" />
<glyph unicode="&#x205f;" horiz-adv-x="455" />
<glyph unicode="&#x20ac;" horiz-adv-x="1036" d="M18 506v129h136v164h-136v129h140q11 220 55 317q44 105 134 160t218 55q328 0 393 -344l-176 -31q-20 104 -67.5 161t-149.5 57q-79 0 -128.5 -33.5t-71.5 -114.5q-24 -91 -29 -227h360l-24 -129h-340v-164h307l-23 -129h-280q5 -140 29 -227q22 -81 71.5 -114.5 t128.5 -33.5q102 0 149.5 56.5t67.5 160.5l176 -31q-65 -344 -393 -344q-132 0 -221 56.5t-131 158.5q-44 101 -55 318h-140z" />
<glyph unicode="&#x2122;" horiz-adv-x="1077" d="M6 1333v101h385v-101h-133v-514h-115v514h-137zM465 819v615h184l86 -424h4l84 424h185v-615h-107v522h-6l-115 -522h-88l-114 522h-7v-522h-106z" />
<glyph unicode="&#xe000;" horiz-adv-x="931" d="M0 0v932h932v-932h-932z" />
</font>
</defs>
</svg>
